<svg width="30" height="30" viewBox="0 0 30 30" fill="none" xmlns="http://www.w3.org/2000/svg">
<g clip-path="url(#clip0_14_180)">
<path fill-rule="evenodd" clip-rule="evenodd" d="M0 15.0102C0 9.05518 5.93129 4.34656 13.0398 4.34656C20.1483 4.34656 26.0795 9.05518 26.0795 15.0102C26.0795 15.3926 26.0518 15.7658 26.0057 16.1302C25.2777 22.256 19.1726 26.5242 16.3532 28.1685L14.3438 29.3395V25.5535C14.1906 25.5668 14.04 25.5856 13.8895 25.6044C13.6109 25.6391 13.3328 25.6738 13.0398 25.6738C5.93129 25.6738 0 20.9652 0 15.0102ZM23.4716 15.0102C23.4716 10.4959 18.8954 6.71626 13.0398 6.71626C7.18413 6.71626 2.60797 10.4959 2.60797 15.0102C2.60797 19.5245 7.18413 23.3041 13.0398 23.3041C13.8422 23.3041 14.6268 23.2244 15.3905 23.0843L16.9517 22.7973V24.5885C19.6216 22.6464 22.9624 19.6679 23.413 15.8757L23.4156 15.8711V15.8664C23.4522 15.5797 23.4716 15.2953 23.4716 15.0102Z" fill="white"/>
<ellipse cx="21.7329" cy="8.69313" rx="4.34659" ry="5.43324" fill="#FF2000"/>
</g>
<defs>
<clipPath id="clip0_14_180">
<rect width="30" height="30" fill="white"/>
</clipPath>
</defs>
</svg>
