<svg width="30" height="30" viewBox="0 0 30 30" fill="none" xmlns="http://www.w3.org/2000/svg">
<path fill-rule="evenodd" clip-rule="evenodd" d="M13.7375 9.73689C13.7375 11.7573 12.075 13.3882 10 13.3882C7.925 13.3882 6.25 11.7573 6.25 9.73689C6.25 7.71649 7.925 6.08557 10 6.08557C12.075 6.08557 13.7375 7.71649 13.7375 9.73689ZM23.7375 9.73689C23.7375 11.7573 22.075 13.3882 20 13.3882C17.925 13.3882 16.25 11.7573 16.25 9.73689C16.25 7.71649 17.925 6.08557 20 6.08557C22.075 6.08557 23.7375 7.71649 23.7375 9.73689ZM10 15.8224C7.0875 15.8224 1.25 17.2464 1.25 20.0823V21.9079C1.25 22.5773 1.8125 23.125 2.5 23.125H17.5C18.1875 23.125 18.75 22.5773 18.75 21.9079V20.0823C18.75 17.2464 12.9125 15.8224 10 15.8224ZM18.7875 15.8833C19.225 15.8468 19.6375 15.8224 20 15.8224C22.9125 15.8224 28.75 17.2464 28.75 20.0823V21.9079C28.75 22.5773 28.1875 23.125 27.5 23.125H21.025C21.1625 22.7477 21.25 22.3339 21.25 21.9079V20.0823C21.25 18.2931 20.2625 16.9422 18.8375 15.932C18.8337 15.9283 18.8299 15.9235 18.8258 15.9182C18.8163 15.9062 18.8049 15.8918 18.7875 15.8833Z" fill="white"/>
</svg>
