<svg width="30" height="30" viewBox="0 0 30 30" fill="none" xmlns="http://www.w3.org/2000/svg">
<path fill-rule="evenodd" clip-rule="evenodd" d="M15 0C6.72 0 0 6.72 0 15C0 23.28 6.72 30 15 30C23.28 30 30 23.28 30 15C30 6.72 23.28 0 15 0ZM13.5 26.895C7.575 26.16 3 21.12 3 15C3 14.07 3.12 13.185 3.315 12.315L10.5 19.5V21C10.5 22.65 11.85 24 13.5 24V26.895ZM21 21C22.35 21 23.46 21.87 23.85 23.085C25.8 20.955 27 18.12 27 15C27 9.97496 23.895 5.66996 19.5 3.88496V4.49996C19.5 6.14996 18.15 7.49996 16.5 7.49996H13.5V10.5C13.5 11.325 12.825 12 12 12H9V15H18C18.825 15 19.5 15.675 19.5 16.5V21H21Z" fill="white"/>
</svg>
