<svg width="30" height="30" viewBox="0 0 30 30" fill="none" xmlns="http://www.w3.org/2000/svg">
<path fill-rule="evenodd" clip-rule="evenodd" d="M15 0C6.7155 0 0 6.7155 0 15C0 23.2845 6.7155 30 15 30C23.2845 30 30 23.2845 30 15C30 6.7155 23.2845 0 15 0ZM15 2.99999C21.627 2.99999 27 8.37299 27 15C27 17.3959 26.2881 19.6217 25.0781 21.4951L23.9238 20.6016C21.5958 18.8061 17.3055 18 15 18C12.6945 18 8.40267 18.8061 6.07617 20.6016L4.92188 21.498C3.71106 19.6242 3 17.3968 3 15C3 8.37299 8.373 2.99999 15 2.99999ZM10.125 10.4999C10.125 7.81188 12.312 5.62488 15 5.62488C17.688 5.62488 19.875 7.81188 19.875 10.4999C19.875 13.1879 17.688 15.3749 15 15.3749C12.312 15.3749 10.125 13.1879 10.125 10.4999ZM15 8.62503C16.0335 8.62503 16.875 9.46653 16.875 10.5C16.875 11.5335 16.0335 12.375 15 12.375C13.9665 12.375 13.125 11.5335 13.125 10.5C13.125 9.46653 13.9665 8.62503 15 8.62503ZM23.3232 23.6308C22.1521 22.7526 19.651 20.9999 14.9999 20.9999C10.3489 20.9999 7.8478 22.7526 6.6767 23.6308C8.83496 25.7127 11.7647 26.9999 14.9999 26.9999C18.2352 26.9999 21.1649 25.7127 23.3232 23.6308ZM6.08203 23.0097C6.21767 23.1592 6.35384 23.3081 6.49448 23.4519C6.35338 23.308 6.21672 23.1595 6.08203 23.0097ZM6.63867 23.5956C6.59004 23.5483 6.54201 23.5004 6.49448 23.4519C6.54198 23.5005 6.59 23.5485 6.63867 23.5956ZM23.8404 23.0931L23.8682 23.0626C23.8346 23.099 23.8011 23.1356 23.7675 23.1722C23.668 23.281 23.5684 23.3898 23.4657 23.4947C23.4322 23.5288 23.3985 23.5625 23.3643 23.5958C23.3985 23.5626 23.4322 23.5289 23.4657 23.4947C23.5939 23.3641 23.7173 23.2285 23.8404 23.0931Z" fill="white"/>
</svg>
